<svg width="60" height="60" viewBox="0 0 60 60" fill="none" xmlns="http://www.w3.org/2000/svg">
<path d="M29.6935 20.3468C29.6935 23.852 26.852 26.6935 23.3468 26.6935C19.8415 26.6935 17 23.852 17 20.3468C17 16.8415 19.8415 14 23.3468 14C26.852 14 29.6935 16.8415 29.6935 20.3468Z" fill="url(#paint0_radial)"/>
<g filter="url(#filter0_ii)">
<path fill-rule="evenodd" clip-rule="evenodd" d="M28.8776 35.3356V35.336H20.5314C16.3772 35.336 13.0095 31.9683 13.0095 27.8141C13.0095 23.6599 16.3772 20.2922 20.5314 20.2922H20.9435C22.4016 20.2922 23.7678 20.6855 24.9419 21.3719C26.4681 16.8501 30.7444 13.5943 35.7812 13.5943H36.3479C42.3516 13.5943 47.2185 18.4613 47.2185 24.465C47.2185 30.4687 42.3516 35.3356 36.3479 35.3356H28.8776Z" fill="white"/>
</g>
<path d="M38.6337 37.7388L38.9346 39.1356C39.1008 39.907 38.6265 40.7284 37.8754 40.9703C37.1242 41.2121 36.3806 40.7827 36.2144 40.0113C36.0483 39.2399 36.5225 38.4185 37.2737 38.1766L38.6337 37.7388Z" fill="url(#paint1_radial)"/>
<path d="M30.6337 37.7388L30.9346 39.1356C31.1008 39.907 30.6265 40.7284 29.8754 40.9703C29.1242 41.2121 28.3806 40.7827 28.2144 40.0113C28.0483 39.2399 28.5225 38.4185 29.2737 38.1766L30.6337 37.7388Z" fill="url(#paint2_radial)"/>
<path d="M22.6337 37.7388L22.9346 39.1356C23.1008 39.907 22.6265 40.7284 21.8754 40.9703C21.1242 41.2121 20.3806 40.7827 20.2144 40.0113C20.0483 39.2399 20.5225 38.4185 21.2737 38.1766L22.6337 37.7388Z" fill="url(#paint3_radial)"/>
<path d="M14.9824 37.7388L15.2832 39.1356C15.4494 39.907 14.9752 40.7284 14.224 40.9703C13.4728 41.2121 12.7292 40.7827 12.563 40.0113C12.3969 39.2399 12.8711 38.4185 13.6223 38.1766L14.9824 37.7388Z" fill="url(#paint4_radial)"/>
<path d="M18.9824 42.7388L19.2832 44.1356C19.4494 44.907 18.9752 45.7284 18.224 45.9703C17.4728 46.2121 16.7292 45.7827 16.563 45.0113C16.3969 44.2399 16.8711 43.4185 17.6223 43.1766L18.9824 42.7388Z" fill="url(#paint5_radial)"/>
<path d="M25.9824 42.7388L26.2832 44.1356C26.4494 44.907 25.9752 45.7284 25.224 45.9703C24.4728 46.2121 23.7292 45.7827 23.563 45.0113C23.3969 44.2399 23.8711 43.4185 24.6223 43.1766L25.9824 42.7388Z" fill="url(#paint6_radial)"/>
<path d="M32.9824 42.7388L33.2832 44.1356C33.4494 44.907 32.9752 45.7284 32.224 45.9703C31.4728 46.2121 30.7292 45.7827 30.563 45.0113C30.3969 44.2399 30.8711 43.4185 31.6223 43.1766L32.9824 42.7388Z" fill="url(#paint7_radial)"/>
<defs>
<filter id="filter0_ii" x="-4.99048" y="-1.4057" width="60.209" height="47.7417" filterUnits="userSpaceOnUse" color-interpolation-filters="sRGB">
<feFlood flood-opacity="0" result="BackgroundImageFix"/>
<feBlend mode="normal" in="SourceGraphic" in2="BackgroundImageFix" result="shape"/>
<feColorMatrix in="SourceAlpha" type="matrix" values="0 0 0 0 0 0 0 0 0 0 0 0 0 0 0 0 0 0 127 0" result="hardAlpha"/>
<feOffset dx="8" dy="-15"/>
<feGaussianBlur stdDeviation="15"/>
<feComposite in2="hardAlpha" operator="arithmetic" k2="-1" k3="1"/>
<feColorMatrix type="matrix" values="0 0 0 0 0 0 0 0 0 0 0 0 0 0 0 0 0 0 0.2 0"/>
<feBlend mode="normal" in2="shape" result="effect1_innerShadow"/>
<feColorMatrix in="SourceAlpha" type="matrix" values="0 0 0 0 0 0 0 0 0 0 0 0 0 0 0 0 0 0 127 0" result="hardAlpha"/>
<feOffset dx="-18" dy="11"/>
<feGaussianBlur stdDeviation="15"/>
<feComposite in2="hardAlpha" operator="arithmetic" k2="-1" k3="1"/>
<feColorMatrix type="matrix" values="0 0 0 0 1 0 0 0 0 1 0 0 0 0 1 0 0 0 1 0"/>
<feBlend mode="normal" in2="effect1_innerShadow" result="effect2_innerShadow"/>
</filter>
<radialGradient id="paint0_radial" cx="0" cy="0" r="1" gradientUnits="userSpaceOnUse" gradientTransform="translate(25.872 16.8872) rotate(132.136) scale(13.2241)">
<stop stop-color="#FFF72C"/>
<stop offset="1" stop-color="#DF7800"/>
</radialGradient>
<radialGradient id="paint1_radial" cx="0" cy="0" r="1" gradientUnits="userSpaceOnUse" gradientTransform="translate(36.1208 40.4639) rotate(-34.1445) scale(3.73169 2.74928)">
<stop stop-color="#008CB9"/>
<stop offset="1" stop-color="#5CC4E5"/>
</radialGradient>
<radialGradient id="paint2_radial" cx="0" cy="0" r="1" gradientUnits="userSpaceOnUse" gradientTransform="translate(28.1208 40.4639) rotate(-34.1445) scale(3.73169 2.74928)">
<stop stop-color="#008CB9"/>
<stop offset="1" stop-color="#5CC4E5"/>
</radialGradient>
<radialGradient id="paint3_radial" cx="0" cy="0" r="1" gradientUnits="userSpaceOnUse" gradientTransform="translate(20.1208 40.4639) rotate(-34.1445) scale(3.73169 2.74928)">
<stop stop-color="#008CB9"/>
<stop offset="1" stop-color="#5CC4E5"/>
</radialGradient>
<radialGradient id="paint4_radial" cx="0" cy="0" r="1" gradientUnits="userSpaceOnUse" gradientTransform="translate(12.4695 40.4639) rotate(-34.1445) scale(3.73169 2.74928)">
<stop stop-color="#008CB9"/>
<stop offset="1" stop-color="#5CC4E5"/>
</radialGradient>
<radialGradient id="paint5_radial" cx="0" cy="0" r="1" gradientUnits="userSpaceOnUse" gradientTransform="translate(16.4695 45.4639) rotate(-34.1445) scale(3.73169 2.74928)">
<stop stop-color="#008CB9"/>
<stop offset="1" stop-color="#5CC4E5"/>
</radialGradient>
<radialGradient id="paint6_radial" cx="0" cy="0" r="1" gradientUnits="userSpaceOnUse" gradientTransform="translate(23.4695 45.4639) rotate(-34.1445) scale(3.73169 2.74928)">
<stop stop-color="#008CB9"/>
<stop offset="1" stop-color="#5CC4E5"/>
</radialGradient>
<radialGradient id="paint7_radial" cx="0" cy="0" r="1" gradientUnits="userSpaceOnUse" gradientTransform="translate(30.4695 45.4639) rotate(-34.1445) scale(3.73169 2.74928)">
<stop stop-color="#008CB9"/>
<stop offset="1" stop-color="#5CC4E5"/>
</radialGradient>
</defs>
</svg>
