<svg width="60" height="60" viewBox="0 0 60 60" fill="none" xmlns="http://www.w3.org/2000/svg">
<circle cx="23.3468" cy="19.3468" r="6.34676" fill="url(#paint0_radial)"/>
<g filter="url(#filter0_ii)">
<path fill-rule="evenodd" clip-rule="evenodd" d="M28.8776 35.3356V35.336H20.5315C16.3772 35.336 13.0096 31.9683 13.0096 27.8141C13.0096 23.6599 16.3772 20.2922 20.5315 20.2922H20.9436C22.4017 20.2922 23.7679 20.6855 24.9419 21.3719C26.4681 16.8501 30.7445 13.5943 35.7812 13.5943H36.348C42.3516 13.5943 47.2186 18.4613 47.2186 24.465C47.2186 30.4687 42.3516 35.3356 36.3479 35.3356H28.8776Z" fill="white"/>
</g>
<path d="M24.3562 39L25.3152 40.0592C25.8448 40.6442 25.8448 41.5927 25.3152 42.1777C24.7856 42.7627 23.9269 42.7627 23.3973 42.1777C22.8677 41.5927 22.8677 40.6442 23.3973 40.0592L24.3562 39Z" fill="#FAFAFA"/>
<path d="M33.3562 39L34.3152 40.0592C34.8448 40.6442 34.8448 41.5927 34.3152 42.1777C33.7856 42.7627 32.9269 42.7627 32.3973 42.1777C31.8677 41.5927 31.8677 40.6442 32.3973 40.0592L33.3562 39Z" fill="#FAFAFA"/>
<defs>
<filter id="filter0_ii" x="-4.99042" y="-1.4057" width="60.209" height="47.7417" filterUnits="userSpaceOnUse" color-interpolation-filters="sRGB">
<feFlood flood-opacity="0" result="BackgroundImageFix"/>
<feBlend mode="normal" in="SourceGraphic" in2="BackgroundImageFix" result="shape"/>
<feColorMatrix in="SourceAlpha" type="matrix" values="0 0 0 0 0 0 0 0 0 0 0 0 0 0 0 0 0 0 127 0" result="hardAlpha"/>
<feOffset dx="8" dy="-15"/>
<feGaussianBlur stdDeviation="15"/>
<feComposite in2="hardAlpha" operator="arithmetic" k2="-1" k3="1"/>
<feColorMatrix type="matrix" values="0 0 0 0 0 0 0 0 0 0 0 0 0 0 0 0 0 0 0.2 0"/>
<feBlend mode="normal" in2="shape" result="effect1_innerShadow"/>
<feColorMatrix in="SourceAlpha" type="matrix" values="0 0 0 0 0 0 0 0 0 0 0 0 0 0 0 0 0 0 127 0" result="hardAlpha"/>
<feOffset dx="-18" dy="11"/>
<feGaussianBlur stdDeviation="15"/>
<feComposite in2="hardAlpha" operator="arithmetic" k2="-1" k3="1"/>
<feColorMatrix type="matrix" values="0 0 0 0 1 0 0 0 0 1 0 0 0 0 1 0 0 0 1 0"/>
<feBlend mode="normal" in2="effect1_innerShadow" result="effect2_innerShadow"/>
</filter>
<radialGradient id="paint0_radial" cx="0" cy="0" r="1" gradientUnits="userSpaceOnUse" gradientTransform="translate(25.872 15.8872) rotate(132.136) scale(13.2241)">
<stop stop-color="#FFF72C"/>
<stop offset="1" stop-color="#DF7800"/>
</radialGradient>
</defs>
</svg>
