<svg width="60" height="60" viewBox="0 0 60 60" fill="none" xmlns="http://www.w3.org/2000/svg">
<g filter="url(#filter0_ii)">
<path fill-rule="evenodd" clip-rule="evenodd" d="M28.8776 35.3356V35.336H20.5315C16.3772 35.336 13.0096 31.9683 13.0096 27.8141C13.0096 23.6599 16.3772 20.2922 20.5315 20.2922H20.9436C22.4017 20.2922 23.7679 20.6855 24.9419 21.3719C26.4681 16.8501 30.7445 13.5943 35.7812 13.5943H36.348C42.3516 13.5943 47.2186 18.4613 47.2186 24.465C47.2186 30.4687 42.3516 35.3356 36.3479 35.3356H28.8776Z" fill="white"/>
</g>
<path d="M40.6337 37.7388L40.9346 39.1356C41.1008 39.907 40.6265 40.7284 39.8754 40.9703C39.1242 41.2121 38.3806 40.7827 38.2144 40.0113C38.0483 39.2399 38.5225 38.4185 39.2737 38.1766L40.6337 37.7388Z" fill="url(#paint0_radial)"/>
<path d="M32.6337 37.7388L32.9346 39.1356C33.1008 39.907 32.6265 40.7284 31.8754 40.9703C31.1242 41.2121 30.3806 40.7827 30.2144 40.0113C30.0483 39.2399 30.5225 38.4185 31.2737 38.1766L32.6337 37.7388Z" fill="url(#paint1_radial)"/>
<path d="M24.6337 37.7388L24.9346 39.1356C25.1008 39.907 24.6265 40.7284 23.8754 40.9703C23.1242 41.2121 22.3806 40.7827 22.2144 40.0113C22.0483 39.2399 22.5225 38.4185 23.2737 38.1766L24.6337 37.7388Z" fill="url(#paint2_radial)"/>
<path d="M16.634 37.6781L16.9349 39.0749C17.101 39.8463 16.6268 40.6677 15.8756 40.9095C15.1245 41.1513 14.3808 40.722 14.2147 39.9506C14.0485 39.1791 14.5227 38.3577 15.2739 38.1159L16.634 37.6781Z" fill="url(#paint3_radial)"/>
<path d="M12.9826 42.6781L13.2835 44.0749C13.4497 44.8463 12.9754 45.6677 12.2243 45.9095C11.4731 46.1513 10.7295 45.722 10.5633 44.9506C10.3971 44.1791 10.8714 43.3577 11.6225 43.1159L12.9826 42.6781Z" fill="url(#paint4_radial)"/>
<path d="M20.6337 42.7388L20.9346 44.1356C21.1008 44.907 20.6265 45.7284 19.8754 45.9703C19.1242 46.2121 18.3806 45.7827 18.2144 45.0113C18.0483 44.2399 18.5225 43.4185 19.2737 43.1766L20.6337 42.7388Z" fill="url(#paint5_radial)"/>
<path d="M27.6337 42.7388L27.9346 44.1356C28.1008 44.907 27.6265 45.7284 26.8754 45.9703C26.1242 46.2121 25.3806 45.7827 25.2144 45.0113C25.0483 44.2399 25.5225 43.4185 26.2737 43.1766L27.6337 42.7388Z" fill="url(#paint6_radial)"/>
<path d="M34.6337 42.7388L34.9346 44.1356C35.1008 44.907 34.6265 45.7284 33.8754 45.9703C33.1242 46.2121 32.3806 45.7827 32.2144 45.0113C32.0483 44.2399 32.5225 43.4185 33.2737 43.1766L34.6337 42.7388Z" fill="url(#paint7_radial)"/>
<defs>
<filter id="filter0_ii" x="-4.99042" y="-1.4057" width="60.209" height="47.7417" filterUnits="userSpaceOnUse" color-interpolation-filters="sRGB">
<feFlood flood-opacity="0" result="BackgroundImageFix"/>
<feBlend mode="normal" in="SourceGraphic" in2="BackgroundImageFix" result="shape"/>
<feColorMatrix in="SourceAlpha" type="matrix" values="0 0 0 0 0 0 0 0 0 0 0 0 0 0 0 0 0 0 127 0" result="hardAlpha"/>
<feOffset dx="8" dy="-15"/>
<feGaussianBlur stdDeviation="15"/>
<feComposite in2="hardAlpha" operator="arithmetic" k2="-1" k3="1"/>
<feColorMatrix type="matrix" values="0 0 0 0 0 0 0 0 0 0 0 0 0 0 0 0 0 0 0.2 0"/>
<feBlend mode="normal" in2="shape" result="effect1_innerShadow"/>
<feColorMatrix in="SourceAlpha" type="matrix" values="0 0 0 0 0 0 0 0 0 0 0 0 0 0 0 0 0 0 127 0" result="hardAlpha"/>
<feOffset dx="-18" dy="11"/>
<feGaussianBlur stdDeviation="15"/>
<feComposite in2="hardAlpha" operator="arithmetic" k2="-1" k3="1"/>
<feColorMatrix type="matrix" values="0 0 0 0 1 0 0 0 0 1 0 0 0 0 1 0 0 0 1 0"/>
<feBlend mode="normal" in2="effect1_innerShadow" result="effect2_innerShadow"/>
</filter>
<radialGradient id="paint0_radial" cx="0" cy="0" r="1" gradientUnits="userSpaceOnUse" gradientTransform="translate(38.1208 40.4639) rotate(-34.1445) scale(3.73169 2.74928)">
<stop stop-color="#008CB9"/>
<stop offset="1" stop-color="#5CC4E5"/>
</radialGradient>
<radialGradient id="paint1_radial" cx="0" cy="0" r="1" gradientUnits="userSpaceOnUse" gradientTransform="translate(30.1208 40.4639) rotate(-34.1445) scale(3.73169 2.74928)">
<stop stop-color="#008CB9"/>
<stop offset="1" stop-color="#5CC4E5"/>
</radialGradient>
<radialGradient id="paint2_radial" cx="0" cy="0" r="1" gradientUnits="userSpaceOnUse" gradientTransform="translate(22.1208 40.4639) rotate(-34.1445) scale(3.73169 2.74928)">
<stop stop-color="#008CB9"/>
<stop offset="1" stop-color="#5CC4E5"/>
</radialGradient>
<radialGradient id="paint3_radial" cx="0" cy="0" r="1" gradientUnits="userSpaceOnUse" gradientTransform="translate(14.1211 40.4032) rotate(-34.1445) scale(3.73169 2.74928)">
<stop stop-color="#008CB9"/>
<stop offset="1" stop-color="#5CC4E5"/>
</radialGradient>
<radialGradient id="paint4_radial" cx="0" cy="0" r="1" gradientUnits="userSpaceOnUse" gradientTransform="translate(10.4697 45.4032) rotate(-34.1445) scale(3.73169 2.74928)">
<stop stop-color="#008CB9"/>
<stop offset="1" stop-color="#5CC4E5"/>
</radialGradient>
<radialGradient id="paint5_radial" cx="0" cy="0" r="1" gradientUnits="userSpaceOnUse" gradientTransform="translate(18.1208 45.4639) rotate(-34.1445) scale(3.73169 2.74928)">
<stop stop-color="#008CB9"/>
<stop offset="1" stop-color="#5CC4E5"/>
</radialGradient>
<radialGradient id="paint6_radial" cx="0" cy="0" r="1" gradientUnits="userSpaceOnUse" gradientTransform="translate(25.1208 45.4639) rotate(-34.1445) scale(3.73169 2.74928)">
<stop stop-color="#008CB9"/>
<stop offset="1" stop-color="#5CC4E5"/>
</radialGradient>
<radialGradient id="paint7_radial" cx="0" cy="0" r="1" gradientUnits="userSpaceOnUse" gradientTransform="translate(32.1208 45.4639) rotate(-34.1445) scale(3.73169 2.74928)">
<stop stop-color="#008CB9"/>
<stop offset="1" stop-color="#5CC4E5"/>
</radialGradient>
</defs>
</svg>
