<svg width="60" height="61" viewBox="0 0 60 61" fill="none" xmlns="http://www.w3.org/2000/svg">
<g filter="url(#filter0_f)">
<path fill-rule="evenodd" clip-rule="evenodd" d="M14.0532 21.1909C17.6069 21.1909 20.4878 18.31 20.4878 14.7562C20.4878 13.0672 19.8371 11.5303 18.7728 10.3823C19.5803 10.1338 20.4381 10 21.3271 10C26.117 10 30 13.883 30 18.6728C30 23.4627 26.117 27.3457 21.3271 27.3457C17.3816 27.3457 14.0515 24.7111 13 21.1051C13.3427 21.1615 13.6945 21.1909 14.0532 21.1909Z" fill="url(#paint0_radial)"/>
</g>
<path fill-rule="evenodd" clip-rule="evenodd" d="M18.2497 21.7502C21.0309 21.7502 23.2855 19.4956 23.2855 16.7144C23.2855 15.1328 22.5565 13.7216 21.4161 12.7983C24.6198 12.8459 27.2023 15.4578 27.2023 18.6728C27.2023 21.9176 24.5719 24.548 21.3271 24.548C19.0036 24.548 16.995 23.1991 16.0419 21.2417C16.7085 21.5674 17.4577 21.7502 18.2497 21.7502Z" fill="url(#paint1_radial)"/>
<g filter="url(#filter1_ii)">
<path fill-rule="evenodd" clip-rule="evenodd" d="M28.8776 36.3357V36.336H20.5315C16.3772 36.336 13.0096 32.9684 13.0096 28.8142C13.0096 24.6599 16.3772 21.2923 20.5314 21.2923H20.9436C22.4017 21.2923 23.7679 21.6856 24.9419 22.3719C26.4681 17.8501 30.7445 14.5944 35.7812 14.5944H36.3479C42.3516 14.5944 47.2186 19.4613 47.2186 25.465C47.2186 31.4687 42.3516 36.3357 36.3479 36.3357H28.8776Z" fill="white"/>
</g>
<path d="M28.634 38.678L28.9349 40.0748C29.101 40.8462 28.6268 41.6676 27.8756 41.9095C27.1245 42.1513 26.3808 41.7219 26.2147 40.9505C26.0485 40.1791 26.5227 39.3577 27.2739 39.1159L28.634 38.678Z" fill="url(#paint2_radial)"/>
<path d="M23.9826 43.678L24.2835 45.0748C24.4497 45.8462 23.9754 46.6676 23.2243 46.9095C22.4731 47.1513 21.7295 46.7219 21.5633 45.9505C21.3971 45.1791 21.8714 44.3577 22.6225 44.1159L23.9826 43.678Z" fill="url(#paint3_radial)"/>
<defs>
<filter id="filter0_f" x="3" y="0" width="37" height="37.3457" filterUnits="userSpaceOnUse" color-interpolation-filters="sRGB">
<feFlood flood-opacity="0" result="BackgroundImageFix"/>
<feBlend mode="normal" in="SourceGraphic" in2="BackgroundImageFix" result="shape"/>
<feGaussianBlur stdDeviation="5" result="effect1_foregroundBlur"/>
</filter>
<filter id="filter1_ii" x="-4.99043" y="-0.40564" width="60.209" height="47.7417" filterUnits="userSpaceOnUse" color-interpolation-filters="sRGB">
<feFlood flood-opacity="0" result="BackgroundImageFix"/>
<feBlend mode="normal" in="SourceGraphic" in2="BackgroundImageFix" result="shape"/>
<feColorMatrix in="SourceAlpha" type="matrix" values="0 0 0 0 0 0 0 0 0 0 0 0 0 0 0 0 0 0 127 0" result="hardAlpha"/>
<feOffset dx="8" dy="-15"/>
<feGaussianBlur stdDeviation="15"/>
<feComposite in2="hardAlpha" operator="arithmetic" k2="-1" k3="1"/>
<feColorMatrix type="matrix" values="0 0 0 0 0 0 0 0 0 0 0 0 0 0 0 0 0 0 0.2 0"/>
<feBlend mode="normal" in2="shape" result="effect1_innerShadow"/>
<feColorMatrix in="SourceAlpha" type="matrix" values="0 0 0 0 0 0 0 0 0 0 0 0 0 0 0 0 0 0 127 0" result="hardAlpha"/>
<feOffset dx="-18" dy="11"/>
<feGaussianBlur stdDeviation="15"/>
<feComposite in2="hardAlpha" operator="arithmetic" k2="-1" k3="1"/>
<feColorMatrix type="matrix" values="0 0 0 0 1 0 0 0 0 1 0 0 0 0 1 0 0 0 1 0"/>
<feBlend mode="normal" in2="effect1_innerShadow" result="effect2_innerShadow"/>
</filter>
<radialGradient id="paint0_radial" cx="0" cy="0" r="1" gradientUnits="userSpaceOnUse" gradientTransform="translate(24.882 13.9454) rotate(131.563) scale(17.9095 17.87)">
<stop stop-color="#FAF7B7"/>
<stop offset="1" stop-color="#E7EA63"/>
</radialGradient>
<radialGradient id="paint1_radial" cx="0" cy="0" r="1" gradientUnits="userSpaceOnUse" gradientTransform="translate(21.6069 18.6728) rotate(-13.134) scale(8.61856 8.18627)">
<stop stop-color="white"/>
<stop offset="1" stop-color="#FFF61C" stop-opacity="0.73"/>
</radialGradient>
<radialGradient id="paint2_radial" cx="0" cy="0" r="1" gradientUnits="userSpaceOnUse" gradientTransform="translate(26.1211 41.4031) rotate(-34.1445) scale(3.73169 2.74928)">
<stop stop-color="#008CB9"/>
<stop offset="1" stop-color="#5CC4E5"/>
</radialGradient>
<radialGradient id="paint3_radial" cx="0" cy="0" r="1" gradientUnits="userSpaceOnUse" gradientTransform="translate(21.4697 46.4031) rotate(-34.1445) scale(3.73169 2.74928)">
<stop stop-color="#008CB9"/>
<stop offset="1" stop-color="#5CC4E5"/>
</radialGradient>
</defs>
</svg>
