<svg width="60" height="60" viewBox="0 0 60 60" fill="none" xmlns="http://www.w3.org/2000/svg">
<g filter="url(#filter0_ii)">
<path fill-rule="evenodd" clip-rule="evenodd" d="M31.8681 33.7413V33.7417H23.5219C19.3677 33.7417 16 30.374 16 26.2198C16 22.0656 19.3677 18.6979 23.5219 18.6979H23.934C25.3921 18.6979 26.7583 19.0912 27.9323 19.7776C29.4585 15.2558 33.7349 12 38.7717 12H39.3384C45.3421 12 50.209 16.867 50.209 22.8707C50.209 28.8744 45.3421 33.7413 39.3384 33.7413H31.8681Z" fill="white"/>
</g>
<path d="M45.1947 35L46.1537 36.0592C46.6833 36.6442 46.6833 37.5927 46.1537 38.1777C45.6241 38.7627 44.7654 38.7627 44.2358 38.1777C43.7062 37.5927 43.7062 36.6442 44.2358 36.0592L45.1947 35Z" fill="#FAFAFA"/>
<path d="M37.0075 35L37.9665 36.0592C38.4961 36.6442 38.4961 37.5927 37.9665 38.1777C37.4369 38.7627 36.5782 38.7627 36.0486 38.1777C35.519 37.5927 35.519 36.6442 36.0486 36.0592L37.0075 35Z" fill="#FAFAFA"/>
<path d="M29.0075 35L29.9665 36.0592C30.4961 36.6442 30.4961 37.5927 29.9665 38.1777C29.4369 38.7627 28.5782 38.7627 28.0486 38.1777C27.519 37.5927 27.519 36.6442 28.0486 36.0592L29.0075 35Z" fill="#FAFAFA"/>
<path d="M21.3562 35L22.3151 36.0592C22.8447 36.6442 22.8447 37.5927 22.3151 38.1777C21.7855 38.7627 20.9268 38.7627 20.3972 38.1777C19.8676 37.5927 19.8676 36.6442 20.3972 36.0592L21.3562 35Z" fill="#FAFAFA"/>
<path d="M25.1947 40L26.1537 41.0592C26.6833 41.6442 26.6833 42.5927 26.1537 43.1777C25.6241 43.7627 24.7654 43.7627 24.2358 43.1777C23.7062 42.5927 23.7062 41.6442 24.2358 41.0592L25.1947 40Z" fill="#FAFAFA"/>
<path d="M33.1947 40L34.1537 41.0592C34.6833 41.6442 34.6833 42.5927 34.1537 43.1777C33.6241 43.7627 32.7654 43.7627 32.2358 43.1777C31.7062 42.5927 31.7062 41.6442 32.2358 41.0592L33.1947 40Z" fill="#FAFAFA"/>
<path d="M41.1947 40L42.1537 41.0592C42.6833 41.6442 42.6833 42.5927 42.1537 43.1777C41.6241 43.7627 40.7654 43.7627 40.2358 43.1777C39.7062 42.5927 39.7062 41.6442 40.2358 41.0592L41.1947 40Z" fill="#FAFAFA"/>
<defs>
<filter id="filter0_ii" x="-2" y="-3" width="60.209" height="47.7417" filterUnits="userSpaceOnUse" color-interpolation-filters="sRGB">
<feFlood flood-opacity="0" result="BackgroundImageFix"/>
<feBlend mode="normal" in="SourceGraphic" in2="BackgroundImageFix" result="shape"/>
<feColorMatrix in="SourceAlpha" type="matrix" values="0 0 0 0 0 0 0 0 0 0 0 0 0 0 0 0 0 0 127 0" result="hardAlpha"/>
<feOffset dx="8" dy="-15"/>
<feGaussianBlur stdDeviation="15"/>
<feComposite in2="hardAlpha" operator="arithmetic" k2="-1" k3="1"/>
<feColorMatrix type="matrix" values="0 0 0 0 0 0 0 0 0 0 0 0 0 0 0 0 0 0 0.2 0"/>
<feBlend mode="normal" in2="shape" result="effect1_innerShadow"/>
<feColorMatrix in="SourceAlpha" type="matrix" values="0 0 0 0 0 0 0 0 0 0 0 0 0 0 0 0 0 0 127 0" result="hardAlpha"/>
<feOffset dx="-18" dy="11"/>
<feGaussianBlur stdDeviation="15"/>
<feComposite in2="hardAlpha" operator="arithmetic" k2="-1" k3="1"/>
<feColorMatrix type="matrix" values="0 0 0 0 1 0 0 0 0 1 0 0 0 0 1 0 0 0 1 0"/>
<feBlend mode="normal" in2="effect1_innerShadow" result="effect2_innerShadow"/>
</filter>
</defs>
</svg>
