<svg width="60" height="60" viewBox="0 0 60 60" fill="none" xmlns="http://www.w3.org/2000/svg">
<g filter="url(#filter0_ii)">
<path fill-rule="evenodd" clip-rule="evenodd" d="M28.8776 35.3357V35.336H20.5315C16.3772 35.336 13.0096 31.9684 13.0096 27.8142C13.0096 23.6599 16.3772 20.2923 20.5315 20.2923H20.9436C22.4017 20.2923 23.7679 20.6856 24.9419 21.3719C26.4681 16.8501 30.7445 13.5944 35.7812 13.5944H36.348C42.3516 13.5944 47.2186 18.4613 47.2186 24.465C47.2186 30.4687 42.3516 35.3357 36.3479 35.3357H28.8776Z" fill="white"/>
</g>
<path d="M44.6337 37.7388L44.9346 39.1356C45.1008 39.907 44.6265 40.7284 43.8754 40.9703C43.1242 41.2121 42.3806 40.7827 42.2144 40.0113C42.0483 39.2399 42.5225 38.4185 43.2737 38.1766L44.6337 37.7388Z" fill="url(#paint0_radial)"/>
<path d="M37.6337 37.7388L37.9346 39.1356C38.1008 39.907 37.6265 40.7284 36.8754 40.9703C36.1242 41.2121 35.3806 40.7827 35.2144 40.0113C35.0483 39.2399 35.5225 38.4185 36.2737 38.1766L37.6337 37.7388Z" fill="url(#paint1_radial)"/>
<path d="M30.6337 37.7388L30.9346 39.1356C31.1008 39.907 30.6265 40.7284 29.8754 40.9703C29.1242 41.2121 28.3806 40.7827 28.2144 40.0113C28.0483 39.2399 28.5225 38.4185 29.2737 38.1766L30.6337 37.7388Z" fill="url(#paint2_radial)"/>
<path d="M23.6337 37.7388L23.9346 39.1356C24.1008 39.907 23.6265 40.7284 22.8754 40.9703C22.1242 41.2121 21.3806 40.7827 21.2144 40.0113C21.0483 39.2399 21.5225 38.4185 22.2737 38.1766L23.6337 37.7388Z" fill="url(#paint3_radial)"/>
<path d="M15.9826 37.678L16.2835 39.0748C16.4497 39.8462 15.9754 40.6676 15.2243 40.9095C14.4731 41.1513 13.7295 40.7219 13.5633 39.9505C13.3971 39.1791 13.8714 38.3577 14.6225 38.1159L15.9826 37.678Z" fill="url(#paint4_radial)"/>
<path d="M19.9826 42.678L20.2835 44.0748C20.4497 44.8462 19.9754 45.6676 19.2243 45.9095C18.4731 46.1513 17.7295 45.7219 17.5633 44.9505C17.3971 44.1791 17.8714 43.3577 18.6225 43.1159L19.9826 42.678Z" fill="url(#paint5_radial)"/>
<path d="M26.6337 42.7388L26.9346 44.1356C27.1008 44.907 26.6265 45.7284 25.8754 45.9703C25.1242 46.2121 24.3806 45.7827 24.2144 45.0113C24.0483 44.2399 24.5225 43.4185 25.2737 43.1766L26.6337 42.7388Z" fill="url(#paint6_radial)"/>
<path d="M33.6337 42.7388L33.9346 44.1356C34.1008 44.907 33.6265 45.7284 32.8754 45.9703C32.1242 46.2121 31.3806 45.7827 31.2144 45.0113C31.0483 44.2399 31.5225 43.4185 32.2737 43.1766L33.6337 42.7388Z" fill="url(#paint7_radial)"/>
<path d="M40.6337 42.7388L40.9346 44.1356C41.1008 44.907 40.6265 45.7284 39.8754 45.9703C39.1242 46.2121 38.3806 45.7827 38.2144 45.0113C38.0483 44.2399 38.5225 43.4185 39.2737 43.1766L40.6337 42.7388Z" fill="url(#paint8_radial)"/>
<defs>
<filter id="filter0_ii" x="-4.99042" y="-1.40564" width="60.209" height="47.7417" filterUnits="userSpaceOnUse" color-interpolation-filters="sRGB">
<feFlood flood-opacity="0" result="BackgroundImageFix"/>
<feBlend mode="normal" in="SourceGraphic" in2="BackgroundImageFix" result="shape"/>
<feColorMatrix in="SourceAlpha" type="matrix" values="0 0 0 0 0 0 0 0 0 0 0 0 0 0 0 0 0 0 127 0" result="hardAlpha"/>
<feOffset dx="8" dy="-15"/>
<feGaussianBlur stdDeviation="15"/>
<feComposite in2="hardAlpha" operator="arithmetic" k2="-1" k3="1"/>
<feColorMatrix type="matrix" values="0 0 0 0 0 0 0 0 0 0 0 0 0 0 0 0 0 0 0.2 0"/>
<feBlend mode="normal" in2="shape" result="effect1_innerShadow"/>
<feColorMatrix in="SourceAlpha" type="matrix" values="0 0 0 0 0 0 0 0 0 0 0 0 0 0 0 0 0 0 127 0" result="hardAlpha"/>
<feOffset dx="-18" dy="11"/>
<feGaussianBlur stdDeviation="15"/>
<feComposite in2="hardAlpha" operator="arithmetic" k2="-1" k3="1"/>
<feColorMatrix type="matrix" values="0 0 0 0 1 0 0 0 0 1 0 0 0 0 1 0 0 0 1 0"/>
<feBlend mode="normal" in2="effect1_innerShadow" result="effect2_innerShadow"/>
</filter>
<radialGradient id="paint0_radial" cx="0" cy="0" r="1" gradientUnits="userSpaceOnUse" gradientTransform="translate(42.1208 40.4639) rotate(-34.1445) scale(3.73169 2.74928)">
<stop stop-color="#008CB9"/>
<stop offset="1" stop-color="#5CC4E5"/>
</radialGradient>
<radialGradient id="paint1_radial" cx="0" cy="0" r="1" gradientUnits="userSpaceOnUse" gradientTransform="translate(35.1208 40.4639) rotate(-34.1445) scale(3.73169 2.74928)">
<stop stop-color="#008CB9"/>
<stop offset="1" stop-color="#5CC4E5"/>
</radialGradient>
<radialGradient id="paint2_radial" cx="0" cy="0" r="1" gradientUnits="userSpaceOnUse" gradientTransform="translate(28.1208 40.4639) rotate(-34.1445) scale(3.73169 2.74928)">
<stop stop-color="#008CB9"/>
<stop offset="1" stop-color="#5CC4E5"/>
</radialGradient>
<radialGradient id="paint3_radial" cx="0" cy="0" r="1" gradientUnits="userSpaceOnUse" gradientTransform="translate(21.1208 40.4639) rotate(-34.1445) scale(3.73169 2.74928)">
<stop stop-color="#008CB9"/>
<stop offset="1" stop-color="#5CC4E5"/>
</radialGradient>
<radialGradient id="paint4_radial" cx="0" cy="0" r="1" gradientUnits="userSpaceOnUse" gradientTransform="translate(13.4697 40.4031) rotate(-34.1445) scale(3.73169 2.74928)">
<stop stop-color="#008CB9"/>
<stop offset="1" stop-color="#5CC4E5"/>
</radialGradient>
<radialGradient id="paint5_radial" cx="0" cy="0" r="1" gradientUnits="userSpaceOnUse" gradientTransform="translate(17.4697 45.4031) rotate(-34.1445) scale(3.73169 2.74928)">
<stop stop-color="#008CB9"/>
<stop offset="1" stop-color="#5CC4E5"/>
</radialGradient>
<radialGradient id="paint6_radial" cx="0" cy="0" r="1" gradientUnits="userSpaceOnUse" gradientTransform="translate(24.1208 45.4639) rotate(-34.1445) scale(3.73169 2.74928)">
<stop stop-color="#008CB9"/>
<stop offset="1" stop-color="#5CC4E5"/>
</radialGradient>
<radialGradient id="paint7_radial" cx="0" cy="0" r="1" gradientUnits="userSpaceOnUse" gradientTransform="translate(31.1208 45.4639) rotate(-34.1445) scale(3.73169 2.74928)">
<stop stop-color="#008CB9"/>
<stop offset="1" stop-color="#5CC4E5"/>
</radialGradient>
<radialGradient id="paint8_radial" cx="0" cy="0" r="1" gradientUnits="userSpaceOnUse" gradientTransform="translate(38.1208 45.4639) rotate(-34.1445) scale(3.73169 2.74928)">
<stop stop-color="#008CB9"/>
<stop offset="1" stop-color="#5CC4E5"/>
</radialGradient>
</defs>
</svg>
