<svg width="60" height="60" viewBox="0 0 60 60" fill="none" xmlns="http://www.w3.org/2000/svg">
<g filter="url(#filter0_ii)">
<path fill-rule="evenodd" clip-rule="evenodd" d="M28.8776 35.3357V35.336H20.5315C16.3772 35.336 13.0096 31.9684 13.0096 27.8142C13.0096 23.6599 16.3772 20.2923 20.5315 20.2923H20.9436C22.4017 20.2923 23.7679 20.6856 24.9419 21.3719C26.4681 16.8501 30.7445 13.5944 35.7812 13.5944H36.348C42.3516 13.5944 47.2186 18.4613 47.2186 24.465C47.2186 30.4687 42.3516 35.3357 36.3479 35.3357H28.8776Z" fill="white"/>
</g>
<path d="M38.6337 37.7388L38.9346 39.1356C39.1008 39.907 38.6265 40.7284 37.8754 40.9703C37.1242 41.2121 36.3806 40.7827 36.2144 40.0113C36.0483 39.2399 36.5225 38.4185 37.2737 38.1766L38.6337 37.7388Z" fill="url(#paint0_radial)"/>
<path d="M14.9824 37.7388L15.2832 39.1356C15.4494 39.907 14.9752 40.7284 14.224 40.9703C13.4728 41.2121 12.7292 40.7827 12.563 40.0113C12.3969 39.2399 12.8711 38.4185 13.6223 38.1766L14.9824 37.7388Z" fill="url(#paint1_radial)"/>
<path d="M25.9824 42.7388L26.2832 44.1356C26.4494 44.907 25.9752 45.7284 25.224 45.9703C24.4728 46.2121 23.7292 45.7827 23.563 45.0113C23.3969 44.2399 23.8711 43.4185 24.6223 43.1766L25.9824 42.7388Z" fill="url(#paint2_radial)"/>
<path d="M21.8386 37L23.8386 39L21.8386 41L19.8386 39L21.8386 37Z" fill="url(#paint3_radial)"/>
<path d="M31.8386 42L33.8386 44L31.8386 46L29.8386 44L31.8386 42Z" fill="url(#paint4_radial)"/>
<path d="M29.8386 37L31.8386 39L29.8386 41L27.8386 39L29.8386 37Z" fill="url(#paint5_radial)"/>
<path d="M17.8386 42L19.8386 44L17.8386 46L15.8386 44L17.8386 42Z" fill="url(#paint6_radial)"/>
<defs>
<filter id="filter0_ii" x="-4.99042" y="-1.40564" width="60.209" height="47.7417" filterUnits="userSpaceOnUse" color-interpolation-filters="sRGB">
<feFlood flood-opacity="0" result="BackgroundImageFix"/>
<feBlend mode="normal" in="SourceGraphic" in2="BackgroundImageFix" result="shape"/>
<feColorMatrix in="SourceAlpha" type="matrix" values="0 0 0 0 0 0 0 0 0 0 0 0 0 0 0 0 0 0 127 0" result="hardAlpha"/>
<feOffset dx="8" dy="-15"/>
<feGaussianBlur stdDeviation="15"/>
<feComposite in2="hardAlpha" operator="arithmetic" k2="-1" k3="1"/>
<feColorMatrix type="matrix" values="0 0 0 0 0 0 0 0 0 0 0 0 0 0 0 0 0 0 0.2 0"/>
<feBlend mode="normal" in2="shape" result="effect1_innerShadow"/>
<feColorMatrix in="SourceAlpha" type="matrix" values="0 0 0 0 0 0 0 0 0 0 0 0 0 0 0 0 0 0 127 0" result="hardAlpha"/>
<feOffset dx="-18" dy="11"/>
<feGaussianBlur stdDeviation="15"/>
<feComposite in2="hardAlpha" operator="arithmetic" k2="-1" k3="1"/>
<feColorMatrix type="matrix" values="0 0 0 0 1 0 0 0 0 1 0 0 0 0 1 0 0 0 1 0"/>
<feBlend mode="normal" in2="effect1_innerShadow" result="effect2_innerShadow"/>
</filter>
<radialGradient id="paint0_radial" cx="0" cy="0" r="1" gradientUnits="userSpaceOnUse" gradientTransform="translate(36.1208 40.4639) rotate(-34.1445) scale(3.73169 2.74928)">
<stop stop-color="#008CB9"/>
<stop offset="1" stop-color="#5CC4E5"/>
</radialGradient>
<radialGradient id="paint1_radial" cx="0" cy="0" r="1" gradientUnits="userSpaceOnUse" gradientTransform="translate(12.4695 40.4639) rotate(-34.1445) scale(3.73169 2.74928)">
<stop stop-color="#008CB9"/>
<stop offset="1" stop-color="#5CC4E5"/>
</radialGradient>
<radialGradient id="paint2_radial" cx="0" cy="0" r="1" gradientUnits="userSpaceOnUse" gradientTransform="translate(23.4695 45.4639) rotate(-34.1445) scale(3.73169 2.74928)">
<stop stop-color="#008CB9"/>
<stop offset="1" stop-color="#5CC4E5"/>
</radialGradient>
<radialGradient id="paint3_radial" cx="0" cy="0" r="1" gradientUnits="userSpaceOnUse" gradientTransform="translate(21.8386 41) rotate(-90) scale(4 3.42294)">
<stop stop-color="#008CB9"/>
<stop offset="1" stop-color="#5CC4E5"/>
</radialGradient>
<radialGradient id="paint4_radial" cx="0" cy="0" r="1" gradientUnits="userSpaceOnUse" gradientTransform="translate(31.8386 46) rotate(-90) scale(4 3.42294)">
<stop stop-color="#008CB9"/>
<stop offset="1" stop-color="#5CC4E5"/>
</radialGradient>
<radialGradient id="paint5_radial" cx="0" cy="0" r="1" gradientUnits="userSpaceOnUse" gradientTransform="translate(29.8386 41) rotate(-90) scale(4 3.42294)">
<stop stop-color="#008CB9"/>
<stop offset="1" stop-color="#5CC4E5"/>
</radialGradient>
<radialGradient id="paint6_radial" cx="0" cy="0" r="1" gradientUnits="userSpaceOnUse" gradientTransform="translate(17.8386 46) rotate(-90) scale(4 3.42294)">
<stop stop-color="#008CB9"/>
<stop offset="1" stop-color="#5CC4E5"/>
</radialGradient>
</defs>
</svg>
