<svg width="60" height="60" viewBox="0 0 60 60" fill="none" xmlns="http://www.w3.org/2000/svg">
<g filter="url(#filter0_ii)">
<path fill-rule="evenodd" clip-rule="evenodd" d="M28.8776 35.3357V35.336H20.5315C16.3772 35.336 13.0096 31.9684 13.0096 27.8142C13.0096 23.6599 16.3772 20.2923 20.5314 20.2923H20.9436C22.4017 20.2923 23.7679 20.6856 24.9419 21.3719C26.4681 16.8501 30.7445 13.5944 35.7812 13.5944H36.3479C42.3516 13.5944 47.2186 18.4613 47.2186 24.465C47.2186 30.4687 42.3516 35.3357 36.3479 35.3357H28.8776Z" fill="white"/>
</g>
<path d="M25.634 37.678L25.9349 39.0748C26.101 39.8462 25.6268 40.6676 24.8756 40.9095C24.1245 41.1513 23.3808 40.7219 23.2147 39.9505C23.0485 39.1791 23.5227 38.3577 24.2739 38.1159L25.634 37.678Z" fill="url(#paint0_radial)"/>
<path d="M21.9826 42.678L22.2835 44.0748C22.4497 44.8462 21.9754 45.6676 21.2243 45.9095C20.4731 46.1513 19.7295 45.7219 19.5633 44.9505C19.3971 44.1791 19.8714 43.3577 20.6225 43.1159L21.9826 42.678Z" fill="url(#paint1_radial)"/>
<path d="M32.3562 38L33.3152 39.0592C33.8448 39.6442 33.8448 40.5927 33.3152 41.1777C32.7856 41.7627 31.9269 41.7627 31.3973 41.1777C30.8677 40.5927 30.8677 39.6442 31.3973 39.0592L32.3562 38Z" fill="#FAFAFA"/>
<path d="M32.3562 42L33.3152 43.0592C33.8448 43.6442 33.8448 44.5927 33.3152 45.1777C32.7856 45.7627 31.9269 45.7627 31.3973 45.1777C30.8677 44.5927 30.8677 43.6442 31.3973 43.0592L32.3562 42Z" fill="#FAFAFA"/>
<defs>
<filter id="filter0_ii" x="-4.99043" y="-1.40564" width="60.209" height="47.7417" filterUnits="userSpaceOnUse" color-interpolation-filters="sRGB">
<feFlood flood-opacity="0" result="BackgroundImageFix"/>
<feBlend mode="normal" in="SourceGraphic" in2="BackgroundImageFix" result="shape"/>
<feColorMatrix in="SourceAlpha" type="matrix" values="0 0 0 0 0 0 0 0 0 0 0 0 0 0 0 0 0 0 127 0" result="hardAlpha"/>
<feOffset dx="8" dy="-15"/>
<feGaussianBlur stdDeviation="15"/>
<feComposite in2="hardAlpha" operator="arithmetic" k2="-1" k3="1"/>
<feColorMatrix type="matrix" values="0 0 0 0 0 0 0 0 0 0 0 0 0 0 0 0 0 0 0.2 0"/>
<feBlend mode="normal" in2="shape" result="effect1_innerShadow"/>
<feColorMatrix in="SourceAlpha" type="matrix" values="0 0 0 0 0 0 0 0 0 0 0 0 0 0 0 0 0 0 127 0" result="hardAlpha"/>
<feOffset dx="-18" dy="11"/>
<feGaussianBlur stdDeviation="15"/>
<feComposite in2="hardAlpha" operator="arithmetic" k2="-1" k3="1"/>
<feColorMatrix type="matrix" values="0 0 0 0 1 0 0 0 0 1 0 0 0 0 1 0 0 0 1 0"/>
<feBlend mode="normal" in2="effect1_innerShadow" result="effect2_innerShadow"/>
</filter>
<radialGradient id="paint0_radial" cx="0" cy="0" r="1" gradientUnits="userSpaceOnUse" gradientTransform="translate(23.1211 40.4031) rotate(-34.1445) scale(3.73169 2.74928)">
<stop stop-color="#008CB9"/>
<stop offset="1" stop-color="#5CC4E5"/>
</radialGradient>
<radialGradient id="paint1_radial" cx="0" cy="0" r="1" gradientUnits="userSpaceOnUse" gradientTransform="translate(19.4697 45.4031) rotate(-34.1445) scale(3.73169 2.74928)">
<stop stop-color="#008CB9"/>
<stop offset="1" stop-color="#5CC4E5"/>
</radialGradient>
</defs>
</svg>
