<svg width="60" height="60" viewBox="0 0 60 60" fill="none" xmlns="http://www.w3.org/2000/svg">
<g filter="url(#filter0_f)">
<path fill-rule="evenodd" clip-rule="evenodd" d="M16.0532 24.1909C19.6069 24.1909 22.4878 21.31 22.4878 17.7562C22.4878 16.0672 21.8371 14.5303 20.7728 13.3823C21.5803 13.1338 22.4381 13 23.3271 13C28.117 13 32 16.883 32 21.6728C32 26.4627 28.117 30.3457 23.3271 30.3457C19.3816 30.3457 16.0515 27.7111 15 24.1051C15.3427 24.1615 15.6945 24.1909 16.0532 24.1909Z" fill="url(#paint0_radial)"/>
</g>
<path fill-rule="evenodd" clip-rule="evenodd" d="M20.2497 24.7502C23.0309 24.7502 25.2855 22.4956 25.2855 19.7144C25.2855 18.1328 24.5565 16.7216 23.4161 15.7983C26.6198 15.8459 29.2023 18.4578 29.2023 21.6728C29.2023 24.9176 26.5719 27.548 23.3271 27.548C21.0036 27.548 18.995 26.1991 18.0419 24.2417C18.7085 24.5674 19.4577 24.7502 20.2497 24.7502Z" fill="url(#paint1_radial)"/>
<g filter="url(#filter1_ii)">
<path fill-rule="evenodd" clip-rule="evenodd" d="M30.8776 40.275V40.2754H22.5315C18.3772 40.2754 15.0096 36.9077 15.0096 32.7535C15.0096 28.5993 18.3772 25.2316 22.5315 25.2316H22.9436C24.4017 25.2316 25.7679 25.6249 26.9419 26.3113C28.4681 21.7895 32.7445 18.5337 37.7812 18.5337H38.348C44.3516 18.5337 49.2186 23.4006 49.2186 29.4043C49.2186 35.408 44.3516 40.275 38.3479 40.275H30.8776Z" fill="white"/>
</g>
<defs>
<filter id="filter0_f" x="5" y="3" width="37" height="37.3457" filterUnits="userSpaceOnUse" color-interpolation-filters="sRGB">
<feFlood flood-opacity="0" result="BackgroundImageFix"/>
<feBlend mode="normal" in="SourceGraphic" in2="BackgroundImageFix" result="shape"/>
<feGaussianBlur stdDeviation="5" result="effect1_foregroundBlur"/>
</filter>
<filter id="filter1_ii" x="-2.99042" y="3.53369" width="60.209" height="47.7417" filterUnits="userSpaceOnUse" color-interpolation-filters="sRGB">
<feFlood flood-opacity="0" result="BackgroundImageFix"/>
<feBlend mode="normal" in="SourceGraphic" in2="BackgroundImageFix" result="shape"/>
<feColorMatrix in="SourceAlpha" type="matrix" values="0 0 0 0 0 0 0 0 0 0 0 0 0 0 0 0 0 0 127 0" result="hardAlpha"/>
<feOffset dx="8" dy="-15"/>
<feGaussianBlur stdDeviation="15"/>
<feComposite in2="hardAlpha" operator="arithmetic" k2="-1" k3="1"/>
<feColorMatrix type="matrix" values="0 0 0 0 0 0 0 0 0 0 0 0 0 0 0 0 0 0 0.2 0"/>
<feBlend mode="normal" in2="shape" result="effect1_innerShadow"/>
<feColorMatrix in="SourceAlpha" type="matrix" values="0 0 0 0 0 0 0 0 0 0 0 0 0 0 0 0 0 0 127 0" result="hardAlpha"/>
<feOffset dx="-18" dy="11"/>
<feGaussianBlur stdDeviation="15"/>
<feComposite in2="hardAlpha" operator="arithmetic" k2="-1" k3="1"/>
<feColorMatrix type="matrix" values="0 0 0 0 1 0 0 0 0 1 0 0 0 0 1 0 0 0 1 0"/>
<feBlend mode="normal" in2="effect1_innerShadow" result="effect2_innerShadow"/>
</filter>
<radialGradient id="paint0_radial" cx="0" cy="0" r="1" gradientUnits="userSpaceOnUse" gradientTransform="translate(26.882 16.9454) rotate(131.563) scale(17.9095 17.87)">
<stop stop-color="#FAF7B7"/>
<stop offset="1" stop-color="#E7EA63"/>
</radialGradient>
<radialGradient id="paint1_radial" cx="0" cy="0" r="1" gradientUnits="userSpaceOnUse" gradientTransform="translate(23.6069 21.6728) rotate(-13.134) scale(8.61856 8.18627)">
<stop stop-color="white"/>
<stop offset="1" stop-color="#FFF61C" stop-opacity="0.73"/>
</radialGradient>
</defs>
</svg>
