<svg width="60" height="60" viewBox="0 0 60 60" fill="none" xmlns="http://www.w3.org/2000/svg">
<circle cx="24" cy="35" r="2" fill="white"/>
<circle cx="40" cy="29" r="2" fill="white"/>
<path d="M50 31.9608C50 30.8562 49.1046 29.9608 48 29.9608C46.8954 29.9608 46 30.8562 46 31.9608H50ZM14 31.9607C14 33.0652 14.8954 33.9607 16 33.9607C17.1046 33.9607 18 33.0652 18 31.9607H14ZM46 31.9608C46 31.694 46.0593 31.5019 46.0846 31.4275C46.1146 31.3393 46.143 31.2854 46.1502 31.2721C46.164 31.2464 46.1509 31.2753 46.0851 31.3587C45.9578 31.5204 45.7257 31.7695 45.3858 32.0574C44.7067 32.6327 43.7188 33.2607 42.5315 33.6419C41.3603 34.0179 40.0066 34.1519 38.5265 33.7773C37.0464 33.4027 35.3115 32.4868 33.4301 30.5625L30.5699 33.3588C32.879 35.7206 35.2393 37.0714 37.545 37.655C39.8506 38.2386 41.973 38.0223 43.7542 37.4504C45.5193 36.8837 46.9599 35.9663 47.9714 35.1095C48.4767 34.6814 48.9053 34.2427 49.2274 33.8339C49.3863 33.6321 49.5451 33.405 49.6746 33.1638C49.7649 32.9955 50 32.5408 50 31.9608H46ZM33.4301 30.5625C31.1156 28.1952 28.7465 26.8613 26.4301 26.3066C24.1157 25.7523 21.9931 26.009 20.2218 26.6024C18.4657 27.1908 17.0388 28.1136 16.0451 28.9372C15.5476 29.3496 15.1329 29.7584 14.8238 30.1198C14.6723 30.297 14.5207 30.4924 14.3941 30.6939C14.3317 30.7931 14.2539 30.9277 14.1854 31.0868C14.1356 31.2024 14 31.5303 14 31.9607H18C18 32.3498 17.8793 32.6223 17.8588 32.6698C17.8196 32.7608 17.7856 32.8146 17.7811 32.8218C17.7703 32.8391 17.7905 32.8052 17.8637 32.7197C18.004 32.5557 18.2501 32.305 18.5978 32.0168C19.2946 31.4393 20.2962 30.796 21.4925 30.3952C22.6736 29.9995 24.0271 29.8442 25.4985 30.1965C26.9677 30.5484 28.6939 31.44 30.5699 33.3588L33.4301 30.5625Z" fill="#5CC4E5"/>
</svg>
