<svg width="60" height="61" viewBox="0 0 60 61" fill="none" xmlns="http://www.w3.org/2000/svg">
<g filter="url(#filter0_f)">
<path fill-rule="evenodd" clip-rule="evenodd" d="M14.0532 21.1909C17.6069 21.1909 20.4878 18.31 20.4878 14.7562C20.4878 13.0672 19.8371 11.5303 18.7728 10.3823C19.5803 10.1338 20.4381 10 21.3271 10C26.117 10 30 13.883 30 18.6728C30 23.4627 26.117 27.3457 21.3271 27.3457C17.3816 27.3457 14.0515 24.7111 13 21.1051C13.3427 21.1615 13.6945 21.1909 14.0532 21.1909Z" fill="url(#paint0_radial)"/>
</g>
<path fill-rule="evenodd" clip-rule="evenodd" d="M18.2497 21.7502C21.0309 21.7502 23.2855 19.4956 23.2855 16.7144C23.2855 15.1328 22.5565 13.7216 21.4161 12.7983C24.6198 12.8459 27.2023 15.4578 27.2023 18.6728C27.2023 21.9176 24.5719 24.548 21.3271 24.548C19.0036 24.548 16.995 23.1991 16.0419 21.2417C16.7085 21.5674 17.4577 21.7502 18.2497 21.7502Z" fill="url(#paint1_radial)"/>
<g filter="url(#filter1_ii)">
<path fill-rule="evenodd" clip-rule="evenodd" d="M28.8776 36.3357V36.336H20.5314C16.3772 36.336 13.0095 32.9684 13.0095 28.8142C13.0095 24.6599 16.3772 21.2923 20.5314 21.2923H20.9435C22.4016 21.2923 23.7678 21.6856 24.9419 22.3719C26.4681 17.8501 30.7444 14.5944 35.7812 14.5944H36.3479C42.3516 14.5944 47.2185 19.4613 47.2185 25.465C47.2185 31.4687 42.3516 36.3357 36.3479 36.3357H28.8776Z" fill="white"/>
</g>
<path d="M38.6337 38.7388L38.9346 40.1356C39.1008 40.907 38.6265 41.7284 37.8754 41.9703C37.1242 42.2121 36.3806 41.7827 36.2144 41.0113C36.0483 40.2399 36.5225 39.4185 37.2737 39.1766L38.6337 38.7388Z" fill="url(#paint2_radial)"/>
<path d="M30.6337 38.7388L30.9346 40.1356C31.1008 40.907 30.6265 41.7284 29.8754 41.9703C29.1242 42.2121 28.3806 41.7827 28.2144 41.0113C28.0483 40.2399 28.5225 39.4185 29.2737 39.1766L30.6337 38.7388Z" fill="url(#paint3_radial)"/>
<path d="M22.6337 38.7388L22.9346 40.1356C23.1008 40.907 22.6265 41.7284 21.8754 41.9703C21.1242 42.2121 20.3806 41.7827 20.2144 41.0113C20.0483 40.2399 20.5225 39.4185 21.2737 39.1766L22.6337 38.7388Z" fill="url(#paint4_radial)"/>
<path d="M14.9824 38.7388L15.2832 40.1356C15.4494 40.907 14.9752 41.7284 14.224 41.9703C13.4728 42.2121 12.7292 41.7827 12.563 41.0113C12.3969 40.2399 12.8711 39.4185 13.6223 39.1766L14.9824 38.7388Z" fill="url(#paint5_radial)"/>
<path d="M18.9824 43.7388L19.2832 45.1356C19.4494 45.907 18.9752 46.7284 18.224 46.9703C17.4728 47.2121 16.7292 46.7827 16.563 46.0113C16.3969 45.2399 16.8711 44.4185 17.6223 44.1766L18.9824 43.7388Z" fill="url(#paint6_radial)"/>
<path d="M25.9824 43.7388L26.2832 45.1356C26.4494 45.907 25.9752 46.7284 25.224 46.9703C24.4728 47.2121 23.7292 46.7827 23.563 46.0113C23.3969 45.2399 23.8711 44.4185 24.6223 44.1766L25.9824 43.7388Z" fill="url(#paint7_radial)"/>
<path d="M32.9824 43.7388L33.2832 45.1356C33.4494 45.907 32.9752 46.7284 32.224 46.9703C31.4728 47.2121 30.7292 46.7827 30.563 46.0113C30.3969 45.2399 30.8711 44.4185 31.6223 44.1766L32.9824 43.7388Z" fill="url(#paint8_radial)"/>
<defs>
<filter id="filter0_f" x="3" y="0" width="37" height="37.3457" filterUnits="userSpaceOnUse" color-interpolation-filters="sRGB">
<feFlood flood-opacity="0" result="BackgroundImageFix"/>
<feBlend mode="normal" in="SourceGraphic" in2="BackgroundImageFix" result="shape"/>
<feGaussianBlur stdDeviation="5" result="effect1_foregroundBlur"/>
</filter>
<filter id="filter1_ii" x="-4.99048" y="-0.40564" width="60.209" height="47.7417" filterUnits="userSpaceOnUse" color-interpolation-filters="sRGB">
<feFlood flood-opacity="0" result="BackgroundImageFix"/>
<feBlend mode="normal" in="SourceGraphic" in2="BackgroundImageFix" result="shape"/>
<feColorMatrix in="SourceAlpha" type="matrix" values="0 0 0 0 0 0 0 0 0 0 0 0 0 0 0 0 0 0 127 0" result="hardAlpha"/>
<feOffset dx="8" dy="-15"/>
<feGaussianBlur stdDeviation="15"/>
<feComposite in2="hardAlpha" operator="arithmetic" k2="-1" k3="1"/>
<feColorMatrix type="matrix" values="0 0 0 0 0 0 0 0 0 0 0 0 0 0 0 0 0 0 0.2 0"/>
<feBlend mode="normal" in2="shape" result="effect1_innerShadow"/>
<feColorMatrix in="SourceAlpha" type="matrix" values="0 0 0 0 0 0 0 0 0 0 0 0 0 0 0 0 0 0 127 0" result="hardAlpha"/>
<feOffset dx="-18" dy="11"/>
<feGaussianBlur stdDeviation="15"/>
<feComposite in2="hardAlpha" operator="arithmetic" k2="-1" k3="1"/>
<feColorMatrix type="matrix" values="0 0 0 0 1 0 0 0 0 1 0 0 0 0 1 0 0 0 1 0"/>
<feBlend mode="normal" in2="effect1_innerShadow" result="effect2_innerShadow"/>
</filter>
<radialGradient id="paint0_radial" cx="0" cy="0" r="1" gradientUnits="userSpaceOnUse" gradientTransform="translate(24.882 13.9454) rotate(131.563) scale(17.9095 17.87)">
<stop stop-color="#FAF7B7"/>
<stop offset="1" stop-color="#E7EA63"/>
</radialGradient>
<radialGradient id="paint1_radial" cx="0" cy="0" r="1" gradientUnits="userSpaceOnUse" gradientTransform="translate(21.6069 18.6728) rotate(-13.134) scale(8.61856 8.18627)">
<stop stop-color="white"/>
<stop offset="1" stop-color="#FFF61C" stop-opacity="0.73"/>
</radialGradient>
<radialGradient id="paint2_radial" cx="0" cy="0" r="1" gradientUnits="userSpaceOnUse" gradientTransform="translate(36.1208 41.4639) rotate(-34.1445) scale(3.73169 2.74928)">
<stop stop-color="#008CB9"/>
<stop offset="1" stop-color="#5CC4E5"/>
</radialGradient>
<radialGradient id="paint3_radial" cx="0" cy="0" r="1" gradientUnits="userSpaceOnUse" gradientTransform="translate(28.1208 41.4639) rotate(-34.1445) scale(3.73169 2.74928)">
<stop stop-color="#008CB9"/>
<stop offset="1" stop-color="#5CC4E5"/>
</radialGradient>
<radialGradient id="paint4_radial" cx="0" cy="0" r="1" gradientUnits="userSpaceOnUse" gradientTransform="translate(20.1208 41.4639) rotate(-34.1445) scale(3.73169 2.74928)">
<stop stop-color="#008CB9"/>
<stop offset="1" stop-color="#5CC4E5"/>
</radialGradient>
<radialGradient id="paint5_radial" cx="0" cy="0" r="1" gradientUnits="userSpaceOnUse" gradientTransform="translate(12.4695 41.4639) rotate(-34.1445) scale(3.73169 2.74928)">
<stop stop-color="#008CB9"/>
<stop offset="1" stop-color="#5CC4E5"/>
</radialGradient>
<radialGradient id="paint6_radial" cx="0" cy="0" r="1" gradientUnits="userSpaceOnUse" gradientTransform="translate(16.4695 46.4639) rotate(-34.1445) scale(3.73169 2.74928)">
<stop stop-color="#008CB9"/>
<stop offset="1" stop-color="#5CC4E5"/>
</radialGradient>
<radialGradient id="paint7_radial" cx="0" cy="0" r="1" gradientUnits="userSpaceOnUse" gradientTransform="translate(23.4695 46.4639) rotate(-34.1445) scale(3.73169 2.74928)">
<stop stop-color="#008CB9"/>
<stop offset="1" stop-color="#5CC4E5"/>
</radialGradient>
<radialGradient id="paint8_radial" cx="0" cy="0" r="1" gradientUnits="userSpaceOnUse" gradientTransform="translate(30.4695 46.4639) rotate(-34.1445) scale(3.73169 2.74928)">
<stop stop-color="#008CB9"/>
<stop offset="1" stop-color="#5CC4E5"/>
</radialGradient>
</defs>
</svg>
