<svg width="60" height="60" viewBox="0 0 60 60" fill="none" xmlns="http://www.w3.org/2000/svg">
<g filter="url(#filter0_f)">
<path fill-rule="evenodd" clip-rule="evenodd" d="M17.5 35C23.8513 35 29 29.8513 29 23.5C29 20.4816 27.8371 17.7348 25.935 15.6832C27.3781 15.2391 28.9112 15 30.5 15C39.0604 15 46 21.9396 46 30.5C46 39.0604 39.0604 46 30.5 46C23.4486 46 17.4969 41.2913 15.6178 34.8467C16.2302 34.9476 16.859 35 17.5 35Z" fill="url(#paint0_radial)"/>
</g>
<path fill-rule="evenodd" clip-rule="evenodd" d="M25 36C29.9706 36 34 31.9706 34 27C34 24.1734 32.697 21.6512 30.6588 20.0012C36.3846 20.0861 41 24.7541 41 30.5C41 36.299 36.299 41 30.5 41C26.3474 41 22.7579 38.5895 21.0543 35.0913C22.2457 35.6734 23.5847 36 25 36Z" fill="url(#paint1_radial)"/>
<defs>
<filter id="filter0_f" x="5.61777" y="5" width="50.3822" height="51" filterUnits="userSpaceOnUse" color-interpolation-filters="sRGB">
<feFlood flood-opacity="0" result="BackgroundImageFix"/>
<feBlend mode="normal" in="SourceGraphic" in2="BackgroundImageFix" result="shape"/>
<feGaussianBlur stdDeviation="5" result="effect1_foregroundBlur"/>
</filter>
<radialGradient id="paint0_radial" cx="0" cy="0" r="1" gradientUnits="userSpaceOnUse" gradientTransform="translate(36.8532 22.0511) rotate(131.563) scale(32.0077 31.937)">
<stop stop-color="#FAF7B7"/>
<stop offset="1" stop-color="#E7EA63"/>
</radialGradient>
<radialGradient id="paint1_radial" cx="0" cy="0" r="1" gradientUnits="userSpaceOnUse" gradientTransform="translate(31 30.5) rotate(-13.134) scale(15.4029 14.6304)">
<stop stop-color="white"/>
<stop offset="1" stop-color="#FFF61C" stop-opacity="0.73"/>
</radialGradient>
</defs>
</svg>
