<svg width="60" height="60" viewBox="0 0 60 60" fill="none" xmlns="http://www.w3.org/2000/svg">
<path d="M22.5052 20.1311L18.8386 42" stroke="#5CC4E5" stroke-width="4" stroke-linecap="round"/>
<path d="M43.172 19.4934C43.172 18.3888 42.2765 17.4934 41.172 17.4934C40.0674 17.4934 39.172 18.3888 39.172 19.4934H43.172ZM20.8386 19.4934C20.8386 20.5979 21.7341 21.4934 22.8386 21.4934C23.9432 21.4934 24.8386 20.5979 24.8386 19.4934H20.8386ZM39.172 19.4934C39.172 19.0523 39.3209 18.7363 39.3829 18.6164C39.4581 18.4711 39.5342 18.3724 39.5719 18.3263C39.6143 18.2743 39.6482 18.2401 39.6645 18.2242C39.6822 18.207 39.6925 18.1984 39.6927 18.1982C39.6934 18.1976 39.6881 18.2021 39.6759 18.2111C39.6639 18.22 39.6469 18.2321 39.6246 18.2471C39.5796 18.2772 39.5184 18.3152 39.441 18.3584C39.1228 18.5358 38.6152 18.7534 37.9758 18.8885C36.7345 19.1507 35.0112 19.1058 33.1221 17.8342L30.8885 21.1525C33.801 23.113 36.6609 23.2546 38.8027 22.8021C39.8547 22.5798 40.7385 22.2146 41.3888 21.8521C41.7097 21.6732 42.0092 21.4752 42.2573 21.2678C42.3764 21.1684 42.5292 21.0291 42.6716 20.8544C42.7424 20.7677 42.8437 20.6321 42.9357 20.4544C43.0145 20.3019 43.172 19.9578 43.172 19.4934H39.172ZM33.1221 17.8342C30.1946 15.8636 27.3243 15.7646 25.1907 16.235C24.1424 16.4661 23.2703 16.8333 22.6379 17.1782C22.3243 17.3493 22.0437 17.529 21.8159 17.7044C21.7075 17.7878 21.5717 17.9002 21.4421 18.0359C21.3805 18.1005 21.2782 18.2138 21.1781 18.3667C21.1294 18.4411 20.8386 18.8696 20.8386 19.4934H24.8386C24.8386 20.1016 24.5564 20.5092 24.5245 20.5579C24.4412 20.6852 24.364 20.768 24.3355 20.7979C24.2722 20.8642 24.2349 20.8901 24.2552 20.8745C24.2849 20.8517 24.3828 20.7828 24.5535 20.6897C24.8896 20.5063 25.4088 20.283 26.052 20.1412C27.3013 19.8657 29.0143 19.8909 30.8885 21.1525L33.1221 17.8342Z" fill="#5CC4E5"/>
<path d="M42.172 26.4934C42.172 25.3888 41.2765 24.4934 40.172 24.4934C39.0674 24.4934 38.172 25.3888 38.172 26.4934H42.172ZM19.8386 26.4934C19.8386 27.5979 20.7341 28.4934 21.8386 28.4934C22.9432 28.4934 23.8386 27.5979 23.8386 26.4934H19.8386ZM38.172 26.4934C38.172 26.0523 38.3209 25.7363 38.3829 25.6164C38.4581 25.4711 38.5342 25.3724 38.5719 25.3263C38.6143 25.2743 38.6482 25.2401 38.6645 25.2242C38.6822 25.207 38.6925 25.1984 38.6927 25.1982C38.6934 25.1976 38.6881 25.2021 38.6759 25.2111C38.6639 25.22 38.6469 25.2321 38.6246 25.2471C38.5796 25.2772 38.5184 25.3152 38.441 25.3584C38.1228 25.5358 37.6152 25.7534 36.9758 25.8885C35.7345 26.1507 34.0112 26.1058 32.1221 24.8342L29.8885 28.1525C32.801 30.113 35.6609 30.2546 37.8027 29.8021C38.8547 29.5798 39.7385 29.2146 40.3888 28.8521C40.7097 28.6732 41.0092 28.4752 41.2573 28.2678C41.3764 28.1684 41.5292 28.0291 41.6716 27.8544C41.7424 27.7677 41.8437 27.6321 41.9357 27.4544C42.0145 27.3019 42.172 26.9578 42.172 26.4934H38.172ZM32.1221 24.8342C29.1946 22.8636 26.3243 22.7646 24.1907 23.235C23.1424 23.4661 22.2703 23.8333 21.6379 24.1782C21.3243 24.3493 21.0437 24.529 20.8159 24.7044C20.7075 24.7878 20.5717 24.9002 20.4421 25.0359C20.3805 25.1005 20.2782 25.2138 20.1781 25.3667C20.1294 25.4411 19.8386 25.8696 19.8386 26.4934H23.8386C23.8386 27.1016 23.5564 27.5092 23.5245 27.5579C23.4412 27.6852 23.364 27.768 23.3355 27.7979C23.2722 27.8642 23.2349 27.8901 23.2552 27.8745C23.2849 27.8517 23.3828 27.7828 23.5535 27.6897C23.8896 27.5063 24.4088 27.283 25.052 27.1412C26.3013 26.8657 28.0143 26.8909 29.8885 28.1525L32.1221 24.8342Z" fill="#5CC4E5"/>
<path d="M41.172 33.4934C41.172 32.3888 40.2765 31.4934 39.172 31.4934C38.0674 31.4934 37.172 32.3888 37.172 33.4934H41.172ZM18.8386 33.4934C18.8386 34.5979 19.7341 35.4934 20.8386 35.4934C21.9432 35.4934 22.8386 34.5979 22.8386 33.4934H18.8386ZM37.172 33.4934C37.172 33.0523 37.3209 32.7363 37.3829 32.6164C37.4581 32.4711 37.5342 32.3724 37.5719 32.3263C37.6143 32.2743 37.6482 32.2401 37.6645 32.2242C37.6822 32.207 37.6925 32.1984 37.6927 32.1982C37.6934 32.1976 37.6881 32.2021 37.6759 32.2111C37.6639 32.22 37.6469 32.2321 37.6246 32.2471C37.5796 32.2772 37.5184 32.3152 37.441 32.3584C37.1228 32.5358 36.6152 32.7534 35.9758 32.8885C34.7345 33.1507 33.0112 33.1058 31.1221 31.8342L28.8885 35.1525C31.801 37.113 34.6609 37.2546 36.8027 36.8021C37.8547 36.5798 38.7385 36.2146 39.3888 35.8521C39.7097 35.6732 40.0092 35.4752 40.2573 35.2678C40.3764 35.1684 40.5292 35.0291 40.6716 34.8544C40.7424 34.7677 40.8437 34.6321 40.9357 34.4544C41.0145 34.3019 41.172 33.9578 41.172 33.4934H37.172ZM31.1221 31.8342C28.1946 29.8636 25.3243 29.7646 23.1907 30.235C22.1424 30.4661 21.2703 30.8333 20.6379 31.1782C20.3243 31.3493 20.0437 31.529 19.8159 31.7044C19.7075 31.7878 19.5717 31.9002 19.4421 32.0359C19.3805 32.1005 19.2782 32.2138 19.1781 32.3667C19.1294 32.4411 18.8386 32.8696 18.8386 33.4934H22.8386C22.8386 34.1016 22.5564 34.5092 22.5245 34.5579C22.4412 34.6852 22.364 34.768 22.3355 34.7979C22.2722 34.8642 22.2349 34.8901 22.2552 34.8745C22.2849 34.8517 22.3828 34.7828 22.5535 34.6897C22.8896 34.5063 23.4088 34.283 24.052 34.1412C25.3013 33.8657 27.0143 33.8909 28.8885 35.1525L31.1221 31.8342Z" fill="#5CC4E5"/>
</svg>
